<mxfile host="app.diagrams.net" agent="Mozilla/5.0 (Windows NT 10.0; Win64; x64) AppleWebKit/537.36 (KHTML, like Gecko) Chrome/136.0.0.0 Safari/537.36 Edg/136.0.0.0" version="27.0.8">
  <diagram name="Page-1" id="rNlAe5Dr7eZTjGbIaGMF">
    <mxGraphModel dx="1949" dy="925" grid="1" gridSize="10" guides="1" tooltips="1" connect="1" arrows="1" fold="1" page="1" pageScale="1" pageWidth="850" pageHeight="1100" math="0" shadow="0">
      <root>
        <mxCell id="0" />
        <mxCell id="1" parent="0" />
        <mxCell id="kEhgwNx_CMLW80q4M-7v-4" value="" style="ellipse;whiteSpace=wrap;html=1;aspect=fixed;" vertex="1" parent="1">
          <mxGeometry x="80" y="40" width="40" height="40" as="geometry" />
        </mxCell>
        <mxCell id="kEhgwNx_CMLW80q4M-7v-5" value="" style="endArrow=none;html=1;rounded=0;entryX=0.5;entryY=1;entryDx=0;entryDy=0;" edge="1" parent="1" target="kEhgwNx_CMLW80q4M-7v-4">
          <mxGeometry width="50" height="50" relative="1" as="geometry">
            <mxPoint x="100" y="160" as="sourcePoint" />
            <mxPoint x="450" y="210" as="targetPoint" />
          </mxGeometry>
        </mxCell>
        <mxCell id="kEhgwNx_CMLW80q4M-7v-6" value="" style="endArrow=none;html=1;rounded=0;" edge="1" parent="1">
          <mxGeometry width="50" height="50" relative="1" as="geometry">
            <mxPoint x="140" y="100" as="sourcePoint" />
            <mxPoint x="60" y="100" as="targetPoint" />
          </mxGeometry>
        </mxCell>
        <mxCell id="kEhgwNx_CMLW80q4M-7v-7" value="" style="endArrow=none;html=1;rounded=0;" edge="1" parent="1">
          <mxGeometry width="50" height="50" relative="1" as="geometry">
            <mxPoint x="130" y="190" as="sourcePoint" />
            <mxPoint x="100" y="160" as="targetPoint" />
          </mxGeometry>
        </mxCell>
        <mxCell id="kEhgwNx_CMLW80q4M-7v-8" value="" style="endArrow=none;html=1;rounded=0;" edge="1" parent="1">
          <mxGeometry width="50" height="50" relative="1" as="geometry">
            <mxPoint x="70" y="190" as="sourcePoint" />
            <mxPoint x="100" y="160" as="targetPoint" />
          </mxGeometry>
        </mxCell>
        <mxCell id="kEhgwNx_CMLW80q4M-7v-9" value="&lt;font style=&quot;font-size: 18px;&quot;&gt;Khách hàng&lt;/font&gt;" style="text;html=1;align=center;verticalAlign=middle;whiteSpace=wrap;rounded=0;" vertex="1" parent="1">
          <mxGeometry x="40" y="200" width="120" height="30" as="geometry" />
        </mxCell>
        <mxCell id="kEhgwNx_CMLW80q4M-7v-10" value="&lt;font style=&quot;font-size: 18px;&quot;&gt;Hệ thống&lt;/font&gt;" style="rounded=1;whiteSpace=wrap;html=1;" vertex="1" parent="1">
          <mxGeometry x="520" y="110" width="170" height="70" as="geometry" />
        </mxCell>
        <mxCell id="kEhgwNx_CMLW80q4M-7v-11" value="" style="rounded=1;whiteSpace=wrap;html=1;" vertex="1" parent="1">
          <mxGeometry x="80" y="280" width="40" height="360" as="geometry" />
        </mxCell>
        <mxCell id="kEhgwNx_CMLW80q4M-7v-12" value="" style="rounded=1;whiteSpace=wrap;html=1;" vertex="1" parent="1">
          <mxGeometry x="585" y="280" width="40" height="360" as="geometry" />
        </mxCell>
        <mxCell id="kEhgwNx_CMLW80q4M-7v-14" value="" style="endArrow=none;dashed=1;html=1;rounded=0;entryX=0.5;entryY=1;entryDx=0;entryDy=0;" edge="1" parent="1" source="kEhgwNx_CMLW80q4M-7v-11" target="kEhgwNx_CMLW80q4M-7v-9">
          <mxGeometry width="50" height="50" relative="1" as="geometry">
            <mxPoint x="370" y="320" as="sourcePoint" />
            <mxPoint x="100" y="240" as="targetPoint" />
          </mxGeometry>
        </mxCell>
        <mxCell id="kEhgwNx_CMLW80q4M-7v-15" value="" style="endArrow=none;dashed=1;html=1;rounded=0;entryX=0.5;entryY=1;entryDx=0;entryDy=0;exitX=0.5;exitY=0;exitDx=0;exitDy=0;" edge="1" parent="1" source="kEhgwNx_CMLW80q4M-7v-12" target="kEhgwNx_CMLW80q4M-7v-10">
          <mxGeometry width="50" height="50" relative="1" as="geometry">
            <mxPoint x="430" y="340" as="sourcePoint" />
            <mxPoint x="480" y="290" as="targetPoint" />
          </mxGeometry>
        </mxCell>
        <mxCell id="kEhgwNx_CMLW80q4M-7v-16" value="" style="endArrow=classic;html=1;rounded=0;exitX=1.025;exitY=0.111;exitDx=0;exitDy=0;exitPerimeter=0;entryX=0.05;entryY=0.114;entryDx=0;entryDy=0;entryPerimeter=0;" edge="1" parent="1" source="kEhgwNx_CMLW80q4M-7v-11" target="kEhgwNx_CMLW80q4M-7v-12">
          <mxGeometry width="50" height="50" relative="1" as="geometry">
            <mxPoint x="430" y="340" as="sourcePoint" />
            <mxPoint x="480" y="290" as="targetPoint" />
          </mxGeometry>
        </mxCell>
        <mxCell id="kEhgwNx_CMLW80q4M-7v-17" value="Kiểm tra đơn hàng" style="text;html=1;align=center;verticalAlign=middle;whiteSpace=wrap;rounded=0;" vertex="1" parent="1">
          <mxGeometry x="170" y="280" width="350" height="30" as="geometry" />
        </mxCell>
        <mxCell id="kEhgwNx_CMLW80q4M-7v-18" value="" style="triangle;whiteSpace=wrap;html=1;direction=west;" vertex="1" parent="1">
          <mxGeometry x="120" y="390" width="10" height="20" as="geometry" />
        </mxCell>
        <mxCell id="kEhgwNx_CMLW80q4M-7v-19" value="" style="endArrow=none;dashed=1;html=1;rounded=0;exitX=0;exitY=0.5;exitDx=0;exitDy=0;" edge="1" parent="1" source="kEhgwNx_CMLW80q4M-7v-18">
          <mxGeometry width="50" height="50" relative="1" as="geometry">
            <mxPoint x="430" y="340" as="sourcePoint" />
            <mxPoint x="580" y="400" as="targetPoint" />
          </mxGeometry>
        </mxCell>
        <mxCell id="kEhgwNx_CMLW80q4M-7v-20" value="Hiển thị danh sách đơn hàng" style="text;html=1;align=center;verticalAlign=middle;whiteSpace=wrap;rounded=0;" vertex="1" parent="1">
          <mxGeometry x="200" y="400" width="320" height="30" as="geometry" />
        </mxCell>
        <mxCell id="kEhgwNx_CMLW80q4M-7v-21" value="" style="endArrow=classic;html=1;rounded=0;exitX=1.15;exitY=0.569;exitDx=0;exitDy=0;exitPerimeter=0;entryX=0.125;entryY=0.569;entryDx=0;entryDy=0;entryPerimeter=0;" edge="1" parent="1">
          <mxGeometry width="50" height="50" relative="1" as="geometry">
            <mxPoint x="121" y="519.9999999999999" as="sourcePoint" />
            <mxPoint x="585" y="519.9999999999999" as="targetPoint" />
            <Array as="points">
              <mxPoint x="355" y="520.16" />
            </Array>
          </mxGeometry>
        </mxCell>
        <mxCell id="kEhgwNx_CMLW80q4M-7v-22" value="Chọn đơn xem chi tiết" style="text;html=1;align=center;verticalAlign=middle;whiteSpace=wrap;rounded=0;" vertex="1" parent="1">
          <mxGeometry x="170" y="490" width="360" height="30" as="geometry" />
        </mxCell>
        <mxCell id="kEhgwNx_CMLW80q4M-7v-23" value="" style="triangle;whiteSpace=wrap;html=1;direction=west;" vertex="1" parent="1">
          <mxGeometry x="120" y="590" width="10" height="20" as="geometry" />
        </mxCell>
        <mxCell id="kEhgwNx_CMLW80q4M-7v-24" value="" style="endArrow=none;dashed=1;html=1;rounded=0;exitX=0;exitY=0.5;exitDx=0;exitDy=0;entryX=0.025;entryY=0.894;entryDx=0;entryDy=0;entryPerimeter=0;" edge="1" parent="1" source="kEhgwNx_CMLW80q4M-7v-23" target="kEhgwNx_CMLW80q4M-7v-12">
          <mxGeometry width="50" height="50" relative="1" as="geometry">
            <mxPoint x="430" y="510" as="sourcePoint" />
            <mxPoint x="480" y="460" as="targetPoint" />
          </mxGeometry>
        </mxCell>
        <mxCell id="kEhgwNx_CMLW80q4M-7v-25" value="Hiển thị thông tin trạng thái đơn hàng" style="text;html=1;align=center;verticalAlign=middle;whiteSpace=wrap;rounded=0;" vertex="1" parent="1">
          <mxGeometry x="180" y="600" width="350" height="30" as="geometry" />
        </mxCell>
        <mxCell id="kEhgwNx_CMLW80q4M-7v-26" value="" style="endArrow=none;dashed=1;html=1;rounded=0;exitX=0.5;exitY=1;exitDx=0;exitDy=0;" edge="1" parent="1" source="kEhgwNx_CMLW80q4M-7v-11">
          <mxGeometry width="50" height="50" relative="1" as="geometry">
            <mxPoint x="430" y="670" as="sourcePoint" />
            <mxPoint x="100" y="720" as="targetPoint" />
          </mxGeometry>
        </mxCell>
        <mxCell id="kEhgwNx_CMLW80q4M-7v-27" value="" style="endArrow=none;dashed=1;html=1;rounded=0;entryX=0.5;entryY=1;entryDx=0;entryDy=0;" edge="1" parent="1" target="kEhgwNx_CMLW80q4M-7v-12">
          <mxGeometry width="50" height="50" relative="1" as="geometry">
            <mxPoint x="605" y="720" as="sourcePoint" />
            <mxPoint x="480" y="620" as="targetPoint" />
          </mxGeometry>
        </mxCell>
      </root>
    </mxGraphModel>
  </diagram>
</mxfile>
